# xmcd
# 
# Track frame offsets:
#     183
#     25680
#     53355
#     69205
#     89828
#     134340
#     157250
#     177275
# 
# Disc length: 2643
# 
# Revision: 1
# Processed by: cddbd v1.5.2PL0 Copyright (c) Steve Scherf et al.
# Submitted via: fre:ac v1.0.31
# 
DISCID=640a5108
DTITLE=Iron Maiden - Seventh Son of a Seventh Son
DYEAR=1988
DGENRE=Hard Rock
TTITLE0=Moonchild
TTITLE1=Infinite Dreams
TTITLE2=Can I Play With Madness
TTITLE3=The Evil That Men Do
TTITLE4=Seventh Son of a Seventh Son
TTITLE5=The Prophecy
TTITLE6=The Clairvoyant
TTITLE7=Only the Good Die Young
EXTD=YEAR: 1988
EXTT0=
EXTT1=
EXTT2=
EXTT3=
EXTT4=
EXTT5=
EXTT6=
EXTT7=
PLAYORDER=
